# xmcd CD database file
#
# Track frame offsets:
#	150
#	15767
#	35010
#	54705
#	68580
#	84372
#	105275
#	118127
#	131225
#	149435
#
# Disc length: 2236 seconds
#
# Revision: 2
# Processed by: cddbd v1.4PL0 Copyright (c) Steve Scherf et al.
# Submitted via: CDex 1.50
#
DISCID=8108ba0a
DTITLE=Hal Ketchum - Sure Love
DYEAR=1992
DGENRE=Country
TTITLE0=Sure Love
TTITLE1=Mama Knows the Highway
TTITLE2=You Lovin' Me
TTITLE3=Hearts Are Gonna Roll
TTITLE4=Softer Than A Whisper
TTITLE5=Ghost Town
TTITLE6=Daddy's Oldsmobile
TTITLE7=Till The Coast Is Clear
TTITLE8=Trail Of Tears
TTITLE9=Some Place Far Away
EXTD=YEAR: 1992
EXTT0=
EXTT1=
EXTT2=
EXTT3=
EXTT4=
EXTT5=
EXTT6=
EXTT7=
EXTT8=
EXTT9=
PLAYORDER=
